<?xml version="1.0" encoding="utf-8"?>
<!-- Generator: Adobe Illustrator 16.0.0, SVG Export Plug-In . SVG Version: 6.00 Build 0)  -->
<!DOCTYPE svg PUBLIC "-//W3C//DTD SVG 1.1//EN" "http://www.w3.org/Graphics/SVG/1.1/DTD/svg11.dtd">
<svg version="1.1" id="Capa_1" xmlns="http://www.w3.org/2000/svg" xmlns:xlink="http://www.w3.org/1999/xlink" x="0px" y="0px"
	 width="14px" height="14.5px" viewBox="0 0 14 14.5" enable-background="new 0 0 14 14.5" xml:space="preserve">
<g id="refer" display="none">
</g>
<g id="app" display="none">
</g>
<g id="prop2" display="none">
</g>
<g id="Capa_4">
	<g>
		<g>
			<path fill="#63C282" d="M2.325,1.742c2.708,0,5.416,0,8.126,0c0.007,0.002,0.015,0.006,0.021,0.006
				c0.11,0.009,0.215,0.042,0.314,0.092c0.166,0.084,0.313,0.196,0.453,0.316c0.289,0.242,0.555,0.506,0.818,0.771
				c0.256,0.258,0.506,0.52,0.729,0.805c0.183,0.233,0.294,0.486,0.294,0.794c-0.005,2.617-0.004,5.233-0.004,7.852
				c0,0.094-0.01,0.188-0.026,0.279c-0.13,0.662-0.696,1.13-1.37,1.13c-3.084,0.001-6.167,0-9.251,0
				c-0.15,0-0.296-0.019-0.437-0.068c-0.486-0.172-0.797-0.507-0.924-1.009c-0.017-0.068-0.024-0.143-0.038-0.213
				c0-3.155,0-6.309,0-9.464c0.002-0.01,0.006-0.02,0.008-0.029C1.056,2.92,1.062,2.833,1.088,2.751
				c0.158-0.509,0.497-0.832,1.013-0.97C2.174,1.761,2.249,1.755,2.325,1.742z M7.053,13.324c1.382,0,2.767,0,4.151,0
				c0.026,0,0.055,0.001,0.082-0.004c0.245-0.041,0.403-0.229,0.403-0.478c0-1.163,0-2.325,0-3.489c0-0.373,0-0.746,0-1.119
				c0-0.262-0.205-0.469-0.467-0.469c-0.334-0.002-0.666,0-0.998,0c-2.44,0-4.882,0-7.323,0c-0.274,0-0.478,0.197-0.478,0.467
				c-0.002,1.541-0.001,3.082,0,4.623c0,0.039,0.004,0.078,0.012,0.113c0.053,0.215,0.235,0.354,0.462,0.354
				C4.284,13.324,5.669,13.324,7.053,13.324z M6.822,2.206c-0.989,0-1.979,0-2.969,0c-0.021,0-0.042-0.001-0.062,0
				C3.546,2.218,3.35,2.422,3.35,2.668c0,1.082,0,2.164,0,3.246c0,0.251,0.207,0.459,0.458,0.461
				c0.13,0.001,0.262,0.001,0.394,0.001c1.881-0.001,3.764,0,5.646-0.001c0.213,0,0.409-0.17,0.443-0.381
				c0.005-0.033,0.008-0.066,0.008-0.099c0-1.069,0-2.138,0-3.207c0-0.089-0.015-0.173-0.063-0.248
				c-0.096-0.158-0.235-0.235-0.422-0.235C8.818,2.206,7.818,2.206,6.822,2.206z"/>
			<path fill="#63C282" d="M9.37,2.671c0,1.081,0,2.158,0,3.238c-0.461,0-0.921,0-1.386,0c0-1.078,0-2.156,0-3.238
				C8.445,2.671,8.907,2.671,9.37,2.671z"/>
		</g>
	</g>
</g>
</svg>
